<?xml version="1.0" encoding="utf-8"?>
<!-- Generator: Adobe Illustrator 25.2.3, SVG Export Plug-In . SVG Version: 6.00 Build 0)  -->
<svg version="1.1" xmlns="http://www.w3.org/2000/svg" xmlns:xlink="http://www.w3.org/1999/xlink" x="0px" y="0px"
	 viewBox="0 0 800 800" style="enable-background:new 0 0 800 800;" xml:space="preserve">
<style type="text/css">
	.st0{fill:#FFFFFF;}
</style>
<g id="Layer_2">
	<circle class="st0" cx="400" cy="409.2" r="374.9"/>
</g>
<g id="Layer_1">
	<path d="M400,34.4c-207,0-374.9,167.9-374.9,374.9c0,164.6,106.1,304.5,253.7,354.9l2.6,0.8c18.8,3.5,25.6-8,25.6-18
		c0-8.9-0.3-32.5-0.5-63.7c-104.3,22.6-126.3-50.3-126.3-50.3c-7.2-23.1-21.9-42.1-41.3-54.6l-0.4-0.2c-34-23.2,2.6-22.8,2.6-22.8
		c24.7,3.5,45.4,18,57.2,38.2l0.2,0.4c13.8,24.9,40,41.4,70,41.4c14.4,0,27.9-3.8,39.5-10.5l-0.4,0.2c1.8-19.8,10.5-37.2,23.7-50.1
		l0,0c-83.2-9.4-170.8-41.6-170.8-185.2c0-0.7,0-1.4,0-2.2c0-38,14.7-72.6,38.7-98.4l-0.1,0.1c-5.1-13.6-8-29.2-8-45.5
		c0-19.4,4.1-37.9,11.6-54.6l-0.3,0.8c0,0,31.4-10.1,103.1,38.4c28.1-8,60.4-12.6,93.7-12.6s65.6,4.6,96.2,13.2l-2.5-0.6
		c71.2-48.5,102.6-38.4,102.6-38.4c7.1,16.1,11.3,34.8,11.3,54.4c0,16.1-2.8,31.4-7.8,45.7l0.3-0.9c23.8,25.8,38.4,60.4,38.4,98.4
		c0,0.8,0,1.5,0,2.3v-0.1c0,144-87.6,175.7-171.1,184.9c15.8,16.2,25.5,38.3,25.5,62.7c0,2.3-0.1,4.7-0.3,7l0-0.3
		c0,50.2-0.5,90.5-0.5,102.6c0,9.8,6.5,21.5,25.8,17.8c150.7-50.7,257.3-190.7,257.3-355.6c0-206.8-167.6-374.4-374.4-374.4
		C400.2,34.3,400.1,34.3,400,34.4L400,34.4L400,34.4z"/>
</g>
</svg>
